<?xml version="1.0" encoding="UTF-8" standalone="no"?><!DOCTYPE svg PUBLIC "-//W3C//DTD SVG 1.1//EN" "http://www.w3.org/Graphics/SVG/1.1/DTD/svg11.dtd"><svg width="100%" height="100%" viewBox="0 0 72 72" version="1.1" xmlns="http://www.w3.org/2000/svg" xmlns:xlink="http://www.w3.org/1999/xlink" xml:space="preserve" xmlns:serif="http://www.serif.com/" style="fill-rule:evenodd;clip-rule:evenodd;stroke-linejoin:round;stroke-miterlimit:1.41421;"><g id="logomarca"><path d="M24.296,48.545l3.503,0l0,5.534c-1.547,1.726 -3.689,2.589 -6.427,2.589c-2.291,0 -4.213,-0.759 -5.768,-2.276c-1.555,-1.518 -2.332,-3.433 -2.332,-5.747c0,-2.313 0.792,-4.243 2.377,-5.79c1.584,-1.547 3.496,-2.321 5.735,-2.321c2.239,0 4.184,0.736 5.835,2.209l-1.808,2.611c-0.699,-0.61 -1.342,-1.03 -1.93,-1.261c-0.587,-0.23 -1.223,-0.346 -1.908,-0.346c-1.324,0 -2.44,0.45 -3.347,1.35c-0.908,0.9 -1.361,2.087 -1.361,3.56c0,1.472 0.435,2.651 1.305,3.537c0.87,0.885 1.908,1.327 3.113,1.327c1.205,0 2.209,-0.23 3.013,-0.691l0,-4.285Z" style="fill:#3f3f3e;fill-rule:nonzero;"/><path d="M38.064,53.41c1.711,0 3.109,-0.677 4.195,-2.031l2.232,2.299c-1.77,1.993 -3.857,2.99 -6.259,2.99c-2.403,0 -4.382,-0.759 -5.936,-2.276c-1.555,-1.518 -2.332,-3.433 -2.332,-5.747c0,-2.313 0.792,-4.243 2.376,-5.79c1.585,-1.547 3.522,-2.321 5.813,-2.321c2.559,0 4.701,0.974 6.427,2.923l-2.164,2.455c-1.101,-1.369 -2.47,-2.053 -4.106,-2.053c-1.31,0 -2.429,0.428 -3.359,1.283c-0.93,0.855 -1.395,2.008 -1.395,3.459c0,1.45 0.439,2.614 1.317,3.492c0.878,0.878 1.942,1.317 3.191,1.317Z" style="fill:#3f3f3e;fill-rule:nonzero;"/><path d="M58.483,40.891l0,3.102l-7.766,0l0,3.213l6.985,0l0,2.968l-6.985,0l0,3.236l8.011,0l0,3.079l-11.492,0l0,-15.598l11.247,0Z" style="fill:#3f3f3e;fill-rule:nonzero;"/><g transform="matrix(0.24,0,0,0.24,8.33783,3.7701)"><path d="M27.328,240.059l2.159,0l0,3.41c-0.954,1.064 -2.274,1.595 -3.96,1.595c-1.412,0 -2.597,-0.467 -3.555,-1.402c-0.958,-0.935 -1.437,-2.115 -1.437,-3.541c0,-1.425 0.488,-2.614 1.465,-3.568c0.976,-0.953 2.154,-1.43 3.533,-1.43c1.38,0 2.579,0.454 3.596,1.361l-1.114,1.609c-0.431,-0.376 -0.827,-0.635 -1.189,-0.777c-0.362,-0.142 -0.754,-0.213 -1.176,-0.213c-0.816,0 -1.503,0.278 -2.062,0.832c-0.559,0.555 -0.839,1.286 -0.839,2.193c0,0.908 0.268,1.634 0.804,2.18c0.537,0.545 1.176,0.818 1.919,0.818c0.742,0 1.361,-0.142 1.856,-0.427l0,-2.64Z" style="fill:#3f3f3e;fill-rule:nonzero;"/><path d="M38.328,235.343l0,1.911l-4.785,0l0,1.98l4.304,0l0,1.829l-4.304,0l0,1.994l4.936,0l0,1.897l-7.081,0l0,-9.611l6.93,0Z" style="fill:#3f3f3e;fill-rule:nonzero;"/><path d="M43.484,237.007c-0.357,0 -0.639,0.085 -0.846,0.254c-0.206,0.17 -0.309,0.395 -0.309,0.674c0,0.28 0.126,0.502 0.378,0.667c0.252,0.165 0.834,0.36 1.746,0.584c0.912,0.225 1.621,0.562 2.125,1.011c0.504,0.449 0.756,1.105 0.756,1.966c0,0.862 -0.323,1.561 -0.969,2.097c-0.647,0.536 -1.497,0.804 -2.551,0.804c-1.522,0 -2.892,-0.563 -4.111,-1.691l1.279,-1.567c1.035,0.907 1.993,1.361 2.873,1.361c0.394,0 0.704,-0.085 0.928,-0.254c0.225,-0.17 0.337,-0.399 0.337,-0.688c0,-0.289 -0.119,-0.518 -0.357,-0.687c-0.239,-0.17 -0.711,-0.342 -1.416,-0.516c-1.119,-0.266 -1.937,-0.612 -2.455,-1.038c-0.518,-0.426 -0.777,-1.096 -0.777,-2.008c0,-0.912 0.328,-1.615 0.983,-2.11c0.656,-0.495 1.474,-0.743 2.455,-0.743c0.641,0 1.283,0.11 1.925,0.33c0.641,0.22 1.201,0.532 1.677,0.935l-1.086,1.568c-0.834,-0.633 -1.696,-0.949 -2.585,-0.949Z" style="fill:#3f3f3e;fill-rule:nonzero;"/><path d="M53.233,237.199l0,7.755l-2.145,0l0,-7.755l-2.723,0l0,-1.856l7.59,0l0,1.856l-2.722,0Z" style="fill:#3f3f3e;fill-rule:nonzero;"/><path d="M64.37,244.954l-0.893,-2.076l-4.029,0l-0.894,2.076l-2.282,0l4.152,-9.611l2.076,0l4.153,9.611l-2.283,0Zm-2.901,-6.751l-1.21,2.791l2.406,0l-1.196,-2.791Zm-0.88,-4.537c-0.284,0 -0.422,0.238 -0.412,0.715l-1.458,0c0,-0.688 0.149,-1.229 0.447,-1.623c0.298,-0.394 0.681,-0.591 1.148,-0.591c0.293,0 0.649,0.126 1.066,0.378c0.417,0.252 0.671,0.378 0.763,0.378c0.284,0 0.421,-0.238 0.412,-0.715l1.458,0c0,0.688 -0.149,1.229 -0.447,1.623c-0.298,0.394 -0.681,0.591 -1.148,0.591c-0.284,0 -0.642,-0.126 -1.073,-0.378c-0.431,-0.252 -0.683,-0.378 -0.756,-0.378Z" style="fill:#3f3f3e;fill-rule:nonzero;"/><path d="M75.123,240.101c0,-0.862 -0.275,-1.595 -0.825,-2.2c-0.55,-0.605 -1.226,-0.908 -2.028,-0.908c-0.802,0 -1.478,0.303 -2.028,0.908c-0.55,0.605 -0.825,1.336 -0.825,2.193c0,0.857 0.275,1.586 0.825,2.186c0.55,0.601 1.226,0.901 2.028,0.901c0.802,0 1.478,-0.3 2.028,-0.901c0.55,-0.6 0.825,-1.327 0.825,-2.179Zm0.729,3.533c-0.972,0.945 -2.168,1.417 -3.589,1.417c-1.421,0 -2.617,-0.475 -3.589,-1.423c-0.972,-0.949 -1.457,-2.129 -1.457,-3.541c0,-1.412 0.485,-2.592 1.457,-3.541c0.972,-0.948 2.168,-1.423 3.589,-1.423c1.421,0 2.617,0.475 3.589,1.423c0.971,0.949 1.457,2.129 1.457,3.541c0,1.412 -0.486,2.594 -1.457,3.547Z" style="fill:#3f3f3e;fill-rule:nonzero;"/><path d="M86.15,235.343c1.714,0 3.03,0.42 3.947,1.258c0.916,0.839 1.375,2.006 1.375,3.5c0,1.494 -0.447,2.676 -1.341,3.547c-0.894,0.871 -2.257,1.306 -4.091,1.306l-3.286,0l0,-9.611l3.396,0Zm0.11,7.714c0.981,0 1.735,-0.248 2.262,-0.743c0.527,-0.495 0.791,-1.214 0.791,-2.158c0,-0.944 -0.264,-1.671 -0.791,-2.18c-0.527,-0.508 -1.336,-0.763 -2.427,-0.763l-1.196,0l0,5.844l1.361,0Z" style="fill:#3f3f3e;fill-rule:nonzero;"/><path d="M100.258,235.343l0,1.911l-4.785,0l0,1.98l4.304,0l0,1.829l-4.304,0l0,1.994l4.936,0l0,1.897l-7.081,0l0,-9.611l6.93,0Z" style="fill:#3f3f3e;fill-rule:nonzero;"/><path d="M110.364,243.057c1.054,0 1.916,-0.417 2.585,-1.251l1.375,1.416c-1.091,1.228 -2.376,1.842 -3.857,1.842c-1.48,0 -2.699,-0.467 -3.657,-1.402c-0.958,-0.935 -1.437,-2.115 -1.437,-3.541c0,-1.425 0.488,-2.614 1.464,-3.568c0.976,-0.953 2.17,-1.43 3.582,-1.43c1.577,0 2.897,0.601 3.96,1.801l-1.334,1.513c-0.678,-0.843 -1.521,-1.265 -2.53,-1.265c-0.806,0 -1.496,0.264 -2.069,0.791c-0.573,0.527 -0.859,1.237 -0.859,2.131c0,0.894 0.27,1.611 0.811,2.152c0.541,0.541 1.196,0.811 1.966,0.811Z" style="fill:#3f3f3e;fill-rule:nonzero;"/><path d="M122.945,235.343l0,1.911l-4.785,0l0,1.98l4.304,0l0,1.829l-4.304,0l0,1.994l4.937,0l0,1.897l-7.082,0l0,-9.611l6.93,0Z" style="fill:#3f3f3e;fill-rule:nonzero;"/><path d="M132.804,238.533c0,1.54 -0.61,2.535 -1.829,2.984l2.434,3.437l-2.64,0l-2.131,-3.066l-1.485,0l0,3.066l-2.145,0l0,-9.611l3.644,0c1.494,0 2.559,0.252 3.196,0.756c0.637,0.505 0.956,1.316 0.956,2.434Zm-4.084,1.499c0.734,0 1.233,-0.119 1.499,-0.358c0.266,-0.238 0.399,-0.616 0.399,-1.134c0,-0.518 -0.138,-0.873 -0.413,-1.066c-0.275,-0.192 -0.756,-0.288 -1.443,-0.288l-1.609,0l0,2.846l1.567,0Z" style="fill:#3f3f3e;fill-rule:nonzero;"/><path d="M139.074,237.199l0,7.755l-2.145,0l0,-7.755l-2.722,0l0,-1.856l7.59,0l0,1.856l-2.723,0Z" style="fill:#3f3f3e;fill-rule:nonzero;"/><rect x="143.364" y="235.343" width="2.145" height="9.611" style="fill:#3f3f3e;fill-rule:nonzero;"/><path d="M154.474,235.343l0,1.884l-4.455,0l0,2.076l4.235,0l0,1.884l-4.235,0l0,3.767l-2.145,0l0,-9.611l6.6,0Z" style="fill:#3f3f3e;fill-rule:nonzero;"/><rect x="156.289" y="235.343" width="2.145" height="9.611" style="fill:#3f3f3e;fill-rule:nonzero;"/><path d="M165.213,243.057c1.054,0 1.916,-0.417 2.585,-1.251l1.375,1.416c-1.091,1.228 -2.377,1.842 -3.857,1.842c-1.481,0 -2.7,-0.467 -3.658,-1.402c-0.958,-0.935 -1.436,-2.115 -1.436,-3.541c0,-1.425 0.488,-2.614 1.464,-3.568c0.976,-0.953 2.17,-1.43 3.582,-1.43c1.576,0 2.896,0.601 3.96,1.801l-1.334,1.513c-0.678,-0.843 -1.522,-1.265 -2.53,-1.265c-0.807,0 -1.496,0.264 -2.069,0.791c-0.573,0.527 -0.86,1.237 -0.86,2.131c0,0.894 0.271,1.611 0.812,2.152c0.54,0.541 1.196,0.811 1.966,0.811Z" style="fill:#3f3f3e;fill-rule:nonzero;"/><path d="M177.712,244.954l-0.894,-2.076l-4.029,0l-0.894,2.076l-2.282,0l4.152,-9.611l2.077,0l4.152,9.611l-2.282,0Zm-2.902,-6.751l-1.21,2.791l2.407,0l-1.197,-2.791Z" style="fill:#3f3f3e;fill-rule:nonzero;"/><path d="M184.504,235.343c1.714,0 3.03,0.42 3.946,1.258c0.917,0.839 1.375,2.006 1.375,3.5c0,1.494 -0.447,2.676 -1.34,3.547c-0.894,0.871 -2.258,1.306 -4.091,1.306l-3.286,0l0,-9.611l3.396,0Zm0.11,7.714c0.981,0 1.735,-0.248 2.262,-0.743c0.527,-0.495 0.791,-1.214 0.791,-2.158c0,-0.944 -0.264,-1.671 -0.791,-2.18c-0.527,-0.508 -1.336,-0.763 -2.427,-0.763l-1.196,0l0,5.844l1.361,0Z" style="fill:#3f3f3e;fill-rule:nonzero;"/><path d="M199.038,240.101c0,-0.862 -0.275,-1.595 -0.825,-2.2c-0.55,-0.605 -1.226,-0.908 -2.028,-0.908c-0.802,0 -1.478,0.303 -2.028,0.908c-0.55,0.605 -0.825,1.336 -0.825,2.193c0,0.857 0.275,1.586 0.825,2.186c0.55,0.601 1.226,0.901 2.028,0.901c0.802,0 1.478,-0.3 2.028,-0.901c0.55,-0.6 0.825,-1.327 0.825,-2.179Zm0.729,3.533c-0.972,0.945 -2.168,1.417 -3.589,1.417c-1.421,0 -2.617,-0.475 -3.589,-1.423c-0.972,-0.949 -1.457,-2.129 -1.457,-3.541c0,-1.412 0.485,-2.592 1.457,-3.541c0.972,-0.948 2.168,-1.423 3.589,-1.423c1.421,0 2.617,0.475 3.589,1.423c0.971,0.949 1.457,2.129 1.457,3.541c0,1.412 -0.486,2.594 -1.457,3.547Z" style="fill:#3f3f3e;fill-rule:nonzero;"/><path d="M206.133,237.007c-0.358,0 -0.64,0.085 -0.846,0.254c-0.206,0.17 -0.309,0.395 -0.309,0.674c0,0.28 0.126,0.502 0.378,0.667c0.252,0.165 0.834,0.36 1.746,0.584c0.912,0.225 1.62,0.562 2.125,1.011c0.504,0.449 0.756,1.105 0.756,1.966c0,0.862 -0.323,1.561 -0.97,2.097c-0.646,0.536 -1.496,0.804 -2.55,0.804c-1.522,0 -2.892,-0.563 -4.111,-1.691l1.278,-1.567c1.036,0.907 1.994,1.361 2.874,1.361c0.394,0 0.704,-0.085 0.928,-0.254c0.225,-0.17 0.337,-0.399 0.337,-0.688c0,-0.289 -0.119,-0.518 -0.357,-0.687c-0.239,-0.17 -0.711,-0.342 -1.417,-0.516c-1.118,-0.266 -1.936,-0.612 -2.454,-1.038c-0.518,-0.426 -0.777,-1.096 -0.777,-2.008c0,-0.912 0.328,-1.615 0.983,-2.11c0.656,-0.495 1.474,-0.743 2.455,-0.743c0.641,0 1.283,0.11 1.925,0.33c0.641,0.22 1.2,0.532 1.677,0.935l-1.086,1.568c-0.834,-0.633 -1.696,-0.949 -2.585,-0.949Z" style="fill:#3f3f3e;fill-rule:nonzero;"/><path d="M72.655,255.281l0,1.911l-4.785,0l0,1.98l4.303,0l0,1.829l-4.303,0l0,1.993l4.936,0l0,1.898l-7.081,0l0,-9.611l6.93,0Z" style="fill:#3f3f3e;fill-rule:nonzero;"/><path d="M74.717,264.892l0,-9.611l2.145,0l0,7.7l4.098,0l0,1.911l-6.243,0Z" style="fill:#3f3f3e;fill-rule:nonzero;"/><path d="M89.457,255.281l0,1.911l-4.785,0l0,1.98l4.304,0l0,1.829l-4.304,0l0,1.993l4.936,0l0,1.898l-7.081,0l0,-9.611l6.93,0Z" style="fill:#3f3f3e;fill-rule:nonzero;"/><path d="M95.59,257.137l0,7.755l-2.145,0l0,-7.755l-2.723,0l0,-1.856l7.59,0l0,1.856l-2.722,0Z" style="fill:#3f3f3e;fill-rule:nonzero;"/><path d="M107.676,258.471c0,1.54 -0.61,2.534 -1.829,2.983l2.434,3.438l-2.64,0l-2.131,-3.066l-1.485,0l0,3.066l-2.145,0l0,-9.611l3.643,0c1.495,0 2.56,0.252 3.197,0.756c0.637,0.504 0.956,1.315 0.956,2.434Zm-4.084,1.498c0.733,0 1.233,-0.119 1.499,-0.357c0.266,-0.238 0.399,-0.616 0.399,-1.134c0,-0.518 -0.138,-0.874 -0.413,-1.066c-0.275,-0.193 -0.756,-0.289 -1.444,-0.289l-1.608,0l0,2.846l1.567,0Z" style="fill:#3f3f3e;fill-rule:nonzero;"/><path d="M117.232,260.038c0,-0.861 -0.275,-1.595 -0.825,-2.2c-0.55,-0.605 -1.226,-0.907 -2.028,-0.907c-0.802,0 -1.478,0.302 -2.028,0.907c-0.55,0.605 -0.825,1.336 -0.825,2.193c0,0.857 0.275,1.586 0.825,2.187c0.55,0.6 1.226,0.9 2.028,0.9c0.802,0 1.478,-0.3 2.028,-0.9c0.55,-0.601 0.825,-1.327 0.825,-2.18Zm0.729,3.534c-0.972,0.944 -2.168,1.416 -3.589,1.416c-1.421,0 -2.617,-0.474 -3.589,-1.423c-0.971,-0.949 -1.457,-2.129 -1.457,-3.541c0,-1.411 0.486,-2.591 1.457,-3.54c0.972,-0.949 2.168,-1.423 3.589,-1.423c1.421,0 2.617,0.474 3.589,1.423c0.972,0.949 1.457,2.129 1.457,3.54c0,1.412 -0.485,2.595 -1.457,3.548Zm-4.744,-9.254l-1.691,0l1.554,-2.172l2.571,0l1.554,2.172l-1.692,0l-1.155,-1.114l-1.141,1.114Z" style="fill:#3f3f3e;fill-rule:nonzero;"/><path d="M127.957,255.281l2.145,0l0,9.611l-2.145,0l-4.579,-6.023l0,6.023l-2.145,0l0,-9.611l2.008,0l4.716,6.187l0,-6.187Z" style="fill:#3f3f3e;fill-rule:nonzero;"/><rect x="132.467" y="255.281" width="2.145" height="9.611" style="fill:#3f3f3e;fill-rule:nonzero;"/><path d="M141.391,262.994c1.054,0 1.916,-0.417 2.585,-1.251l1.375,1.416c-1.091,1.229 -2.377,1.843 -3.857,1.843c-1.48,0 -2.7,-0.468 -3.657,-1.403c-0.958,-0.935 -1.437,-2.115 -1.437,-3.54c0,-1.426 0.488,-2.615 1.464,-3.568c0.976,-0.954 2.17,-1.43 3.582,-1.43c1.577,0 2.897,0.6 3.96,1.801l-1.334,1.512c-0.678,-0.843 -1.522,-1.265 -2.53,-1.265c-0.807,0 -1.496,0.264 -2.069,0.791c-0.573,0.527 -0.86,1.238 -0.86,2.131c0,0.894 0.271,1.611 0.812,2.152c0.54,0.541 1.196,0.811 1.966,0.811Z" style="fill:#3f3f3e;fill-rule:nonzero;"/><path d="M154.398,260.038c0,-0.861 -0.275,-1.595 -0.825,-2.2c-0.55,-0.605 -1.226,-0.907 -2.028,-0.907c-0.802,0 -1.478,0.302 -2.028,0.907c-0.55,0.605 -0.825,1.336 -0.825,2.193c0,0.857 0.275,1.586 0.825,2.187c0.55,0.6 1.226,0.9 2.028,0.9c0.802,0 1.478,-0.3 2.028,-0.9c0.55,-0.601 0.825,-1.327 0.825,-2.18Zm0.729,3.534c-0.972,0.944 -2.168,1.416 -3.589,1.416c-1.42,0 -2.617,-0.474 -3.588,-1.423c-0.972,-0.949 -1.458,-2.129 -1.458,-3.541c0,-1.411 0.486,-2.591 1.458,-3.54c0.971,-0.949 2.168,-1.423 3.588,-1.423c1.421,0 2.617,0.474 3.589,1.423c0.972,0.949 1.458,2.129 1.458,3.54c0,1.412 -0.486,2.595 -1.458,3.548Z" style="fill:#3f3f3e;fill-rule:nonzero;"/><path d="M161.493,256.944c-0.357,0 -0.639,0.085 -0.845,0.255c-0.206,0.169 -0.31,0.394 -0.31,0.674c0,0.279 0.126,0.501 0.379,0.666c0.252,0.165 0.834,0.36 1.746,0.585c0.912,0.224 1.62,0.561 2.124,1.01c0.504,0.45 0.756,1.105 0.756,1.967c0,0.861 -0.323,1.56 -0.969,2.097c-0.646,0.536 -1.496,0.804 -2.551,0.804c-1.521,0 -2.892,-0.564 -4.111,-1.691l1.279,-1.568c1.036,0.908 1.994,1.361 2.874,1.361c0.394,0 0.703,-0.084 0.928,-0.254c0.224,-0.169 0.337,-0.399 0.337,-0.687c0,-0.289 -0.12,-0.518 -0.358,-0.688c-0.238,-0.169 -0.71,-0.341 -1.416,-0.516c-1.118,-0.265 -1.937,-0.611 -2.454,-1.038c-0.518,-0.426 -0.777,-1.095 -0.777,-2.007c0,-0.912 0.327,-1.616 0.983,-2.111c0.655,-0.495 1.473,-0.742 2.454,-0.742c0.642,0 1.283,0.11 1.925,0.33c0.642,0.22 1.201,0.531 1.678,0.935l-1.087,1.567c-0.834,-0.632 -1.695,-0.949 -2.585,-0.949Z" style="fill:#3f3f3e;fill-rule:nonzero;"/></g><g id="certificado-eletrônico" serif:id="certificado eletrônico"><g id="certificado"><path d="M36.009,4.629l12.471,7.2l0,14.4l-12.471,7.2l-12.471,-7.2l0,-14.4l12.471,-7.2Zm0,7.068l6.351,3.666l0,7.332l-6.351,3.666l-6.351,-3.666l0,-7.332l6.351,-3.666Z" style="fill:#fff;"/><path d="M48.48,19.162l0,7.067l-12.471,7.2l-6.121,-3.533l9.939,-5.739l2.533,-1.462l0,0l6.12,-3.533Z" style="fill:#009687;"/><path d="M42.36,8.296l6.12,3.533l0,14.4l-6.12,3.534l0,-21.467Z" style="fill:#01685c;"/><path d="M36.009,11.697l-6.122,-3.533l6.122,-3.534l8.806,5.084l3.665,2.115l0,7.068l-6.12,-3.533l0,-0.001l-6.351,-3.666l0,0Z" style="fill:#009687;"/><path d="M30.333,7.907l5.676,-3.277l6.122,3.534l-6.122,3.533l-6.351,3.666l-6.12,3.533l0,-7.067l6.795,-3.922Z" style="fill:#01685c;"/><path d="M23.538,22.695l0,-10.866l6.12,-3.533l0,21.467l-6.12,-3.534l0,-3.534Z" style="fill:#009687;"/><path d="M23.538,19.162l0,7.067l12.471,7.2l6.121,-3.533l-9.939,-5.739l-2.533,-1.462l0,0l-6.12,-3.533Z" style="fill:#01685c;"/><path d="M36.012,33.402l0,-7.052l6.348,3.643l0,7.059l-6.348,-3.65Z" style="fill:#01685c;"/><path d="M36.006,26.35l0,7.052l-6.348,3.65l0,-7.059l6.348,-3.643Z" style="fill:#009687;"/></g><path id="eletrônico" d="M18.127,30.403l9.818,0l0,1.667l-11.525,0l0,-13.916l1.707,0l0,12.249Zm37.453,1.667l-11.507,0l0,-1.667l9.8,0l0,-2.902c-0.697,-0.323 -1.182,-1.03 -1.182,-1.849c0,-1.124 0.912,-2.036 2.036,-2.036c1.124,0 2.036,0.912 2.036,2.036c0,0.819 -0.485,1.526 -1.183,1.849l0,4.569Zm-0.853,-7.32c0.498,0 0.902,0.404 0.902,0.902c0,0.497 -0.404,0.902 -0.902,0.902c-0.498,0 -0.902,-0.405 -0.902,-0.902c0,-0.498 0.404,-0.902 0.902,-0.902Zm0.853,-2.257l-1.707,0l0,-12.25l-4.711,0l-2.888,-1.667l9.306,0l0,13.917Zm-32.724,-12.25l-4.729,0l0,2.903c0.697,0.323 1.182,1.03 1.182,1.849c0,1.123 -0.912,2.036 -2.036,2.036c-1.124,0 -2.036,-0.913 -2.036,-2.036c0,-0.819 0.485,-1.526 1.183,-1.849l0,-4.57l9.324,0l-2.888,1.667Zm-5.583,5.653c-0.498,0 -0.902,-0.404 -0.902,-0.901c0,-0.498 0.404,-0.902 0.902,-0.902c0.498,0 0.902,0.404 0.902,0.902c0,0.497 -0.404,0.901 -0.902,0.901Z" style="fill:#009687;"/></g></g></svg>